<?xml version="1.0" encoding="utf-8"?>
<!-- Generator: Adobe Illustrator 21.0.2, SVG Export Plug-In . SVG Version: 6.00 Build 0)  -->
<svg version="1.1" id="Layer_1" xmlns="http://www.w3.org/2000/svg" xmlns:xlink="http://www.w3.org/1999/xlink" x="0px" y="0px"
	 width="143px" height="38.9px" viewBox="0 0 143 38.9" style="enable-background:new 0 0 143 38.9;" xml:space="preserve">
<style type="text/css">
	.st0{fill:#1E0936;}
	.st1{fill:#B0ACFF;}
	.st2{fill:#4842B7;}
</style>
<g>
	<path class="st0" d="M56,15.9c-1.7-1-3.2-1.4-4.8-1.4c-1.3,0-2.1,0.6-2.1,1.4c0,2.5,9.3,0.4,9.3,7.1c0,3.1-2.7,5.5-7,5.5
		c-1.9,0-4.3-0.5-5.9-1.3c-0.1,0-0.1-0.1-0.2-0.1c-0.3-0.2-0.3-0.5-0.2-0.8l1.1-2.5c0.2-0.3,0.5-0.5,0.8-0.3
		c0.1,0.1,0.1,0.1,0.2,0.1c1.4,0.6,2.9,0.9,4.2,0.9c2.1,0,2.7-0.6,2.7-1.6c0-2.8-9.3-0.8-9.3-7.1c0-2.9,2.5-5.3,6.4-5.3
		c2,0,4.6,0.7,6.4,1.7c0.1,0.1,0.1,0.1,0.2,0.1c0.3,0.2,0.4,0.5,0.3,0.8l-1.1,2.5C56.7,16,56.3,16.1,56,15.9C56,16,56,16,56,15.9
		C56,16,56,16,56,15.9z M73.4,11.2h2.9c0.4,0,0.6,0.3,0.6,0.6v23.7c0,0.4-0.3,0.6-0.6,0.6h-2.9c-0.4,0-0.6-0.3-0.6-0.6v-8.3
		c-1.1,0.7-2.7,1.3-4.3,1.3c-5,0-8.8-4-8.8-8.9s3.8-8.9,8.8-8.9c1.6,0,3.2,0.6,4.3,1.3v-0.1C72.8,11.5,73,11.2,73.4,11.2z
		 M72.8,22.6v-6c-1.2-1.2-2.6-1.9-4.2-1.9c-2.7,0-4.7,2.1-4.7,4.9s2,4.9,4.7,4.9C70.2,24.5,71.6,24,72.8,22.6z M90.7,11.2
		c-1-0.4-1.9-0.5-2.8-0.5c-1.6,0-3.2,0.6-4.5,1.3v-0.2c0-0.3-0.2-0.5-0.5-0.5h-3.2c-0.3,0-0.5,0.2-0.5,0.5V28c0,0.3,0.2,0.5,0.5,0.5
		H83c0.3,0,0.5-0.2,0.5-0.5V16.5c1-1.1,2.6-1.8,4.3-1.8c0.4,0,0.9,0.1,1.4,0.2c0.3,0.1,0.6-0.1,0.7-0.4l1.2-2.7
		C91,11.6,90.9,11.3,90.7,11.2L90.7,11.2z M105.8,26.7c-1.6,1-3.9,1.8-6.2,1.8c-5.5,0-9.5-4-9.5-9.1c0-4.9,3.4-8.8,8.6-8.8
		c4.8,0,7.7,4.1,7.7,8.3c0,0.4-0.1,0.8-0.1,1.2c-0.1,0.3-0.3,0.6-0.6,0.6H94.3c0.5,2.6,2.6,4.2,5.3,4.2c1.6,0,3.2-0.5,4.7-1.3
		c0.3-0.2,0.6-0.1,0.7,0.2v0.1l1.1,2.4C106.1,26.3,106,26.5,105.8,26.7C105.9,26.6,105.8,26.7,105.8,26.7z M94.5,17.5h7.8
		c-0.2-1.7-1.7-3.1-3.6-3.1C96.4,14.4,95,15.8,94.5,17.5z M123.8,26.7c-1.6,1-3.9,1.8-6.2,1.8c-5.5,0-9.5-4-9.5-9.1
		c0-4.9,3.4-8.8,8.6-8.8c4.8,0,7.7,4.1,7.7,8.3c0,0.4-0.1,0.8-0.1,1.2c-0.1,0.3-0.3,0.6-0.6,0.6h-11.5c0.5,2.6,2.6,4.2,5.3,4.2
		c1.6,0,3.2-0.5,4.7-1.3c0.3-0.2,0.6-0.1,0.7,0.2v0.1l1.1,2.4C124.1,26.3,124,26.5,123.8,26.7C123.9,26.6,123.9,26.7,123.8,26.7z
		 M112.5,17.5h7.8c-0.2-1.7-1.7-3.1-3.6-3.1C114.5,14.4,113.1,15.8,112.5,17.5z M126.4,11.8v16.1c0,0.4,0.3,0.6,0.6,0.6h2.9
		c0.4,0,0.6-0.3,0.6-0.6V16.5c1-1.1,2.6-1.8,4.3-1.8c2.7,0,4.1,1.5,4.1,4.3v8.9c0,0.4,0.3,0.6,0.6,0.6h2.9c0.4,0,0.6-0.3,0.6-0.6
		v-9.4c0-4.8-2.7-7.9-8-7.9c-1.6,0-3.2,0.6-4.5,1.3v-0.1c0-0.4-0.3-0.6-0.6-0.6H127C126.7,11.2,126.4,11.5,126.4,11.8z"/>
	<ellipse class="st1" cx="17.2" cy="19.5" rx="9.3" ry="9.3"/>
	<path class="st2" d="M15.9,35.5V20.6L2.7,13v13.1l4.7-2.7c0.4,0.9,0.8,1.6,1.3,2.3l-4.9,2.8C3.8,28.5,15.9,35.5,15.9,35.5z
		 M18.5,35.5l12.1-7l-4.9-2.8c0.5-0.7,1-1.5,1.3-2.3l4.7,2.7V13l-13.2,7.6V35.5z M3.6,10.5l13.6,7.8l13.6-7.8L18.5,3.5V9
		c-0.5-0.1-0.9-0.1-1.3-0.1S16.3,8.9,15.9,9V3.5L3.6,10.5z M18.4,0.3l14.8,8.6c0.8,0.4,1.2,1.2,1.2,2.1V28c0,0.9-0.5,1.7-1.2,2.1
		l-14.8,8.6c-0.8,0.4-1.7,0.4-2.4,0L1.2,30.1C0.5,29.7,0,28.9,0,28V10.9c0-0.9,0.5-1.7,1.2-2.1L16,0.3C16.7-0.1,17.6-0.1,18.4,0.3z"
		/>
</g>
</svg>
